<?xml version="1.0" encoding="iso-8859-1"?>
<!-- Generator: Adobe Illustrator 19.0.0, SVG Export Plug-In . SVG Version: 6.00 Build 0)  -->
<svg version="1.1" id="Capa_1" xmlns="http://www.w3.org/2000/svg" xmlns:xlink="http://www.w3.org/1999/xlink" x="0px" y="0px"
	 viewBox="0 0 480 480" style="enable-background:new 0 0 480 480;" xml:space="preserve">
<g>
	<g>
		<path d="M88,40c-22.091,0-40,17.909-40,40c0.026,22.08,17.92,39.974,40,40c22.091,0,40-17.909,40-40S110.091,40,88,40z M88,104
			c-13.255,0-24-10.745-24-24s10.745-24,24-24s24,10.745,24,24S101.255,104,88,104z"/>
	</g>
</g>
<g>
	<g>
		<path d="M384,312c-17.673,0-32,14.327-32,32c0,17.673,14.327,32,32,32c17.673,0,32-14.327,32-32C416,326.327,401.673,312,384,312z
			 M384,360c-8.837,0-16-7.163-16-16s7.163-16,16-16s16,7.163,16,16S392.837,360,384,360z"/>
	</g>
</g>
<g>
	<g>
		<path d="M392,384h-16c-22.08,0.026-39.974,17.92-40,40v56h96v-56C431.974,401.92,414.08,384.026,392,384z M416,464h-64v-40
			c0-13.255,10.745-24,24-24h16c13.255,0,24,10.745,24,24V464z"/>
	</g>
</g>
<g>
	<g>
		<path d="M280,312c-17.673,0-32,14.327-32,32c0,17.673,14.327,32,32,32c17.673,0,32-14.327,32-32C312,326.327,297.673,312,280,312z
			 M280,360c-8.837,0-16-7.163-16-16s7.163-16,16-16s16,7.163,16,16S288.837,360,280,360z"/>
	</g>
</g>
<g>
	<g>
		<path d="M288,384h-16c-22.08,0.026-39.974,17.92-40,40v56h96v-56C327.974,401.92,310.08,384.026,288,384z M312,464h-64v-40
			c0-13.255,10.745-24,24-24h16c13.255,0,24,10.745,24,24V464z"/>
	</g>
</g>
<g>
	<g>
		<path d="M168,312c-17.673,0-32,14.327-32,32c0,17.673,14.327,32,32,32s32-14.327,32-32C200,326.327,185.673,312,168,312z M168,360
			c-8.837,0-16-7.163-16-16s7.163-16,16-16s16,7.163,16,16S176.837,360,168,360z"/>
	</g>
</g>
<g>
	<g>
		<path d="M176,384h-16c-22.08,0.026-39.974,17.92-40,40v56h96v-56C215.974,401.92,198.08,384.026,176,384z M200,464h-64v-40
			c0-13.255,10.745-24,24-24h16c13.255,0,24,10.745,24,24V464z"/>
	</g>
</g>
<g>
	<g>
		<path d="M64,312c-17.673,0-32,14.327-32,32c0,17.673,14.327,32,32,32s32-14.327,32-32C96,326.327,81.673,312,64,312z M64,360
			c-8.837,0-16-7.163-16-16s7.163-16,16-16s16,7.163,16,16S72.837,360,64,360z"/>
	</g>
</g>
<g>
	<g>
		<path d="M72,384H56c-22.08,0.026-39.974,17.92-40,40v56h96v-56C111.974,401.92,94.08,384.026,72,384z M96,464H32v-40
			c0-13.255,10.745-24,24-24h16c13.255,0,24,10.745,24,24V464z"/>
	</g>
</g>
<g>
	<g>
		<path d="M64,128c-22.08,0.026-39.974,17.92-40,40v88h128v-80h96v-48H64z M232,160h-96v80H40v-72c0-13.255,10.745-24,24-24h168V160
			z"/>
	</g>
</g>
<g>
	<g>
		<polygon points="176,0 176,112 192,112 192,16 448,16 448,224 192,224 192,192 176,192 176,240 464,240 464,0 		"/>
	</g>
</g>
<g>
	<g>
		<path d="M384,32c-26.51,0-48,21.49-48,48s21.49,48,48,48c26.499-0.026,47.974-21.501,48-48C432,53.49,410.51,32,384,32z M384,112
			c-17.638,0.022-31.954-14.258-31.976-31.896c-0.018-14.587,9.849-27.332,23.976-30.968V88h38.864
			C411.227,102.086,398.547,111.945,384,112z M392,72V49.136c11.202,2.913,19.951,11.662,22.864,22.864H392z"/>
	</g>
</g>
<g>
	<g>
		<rect x="224" y="32" width="16" height="16"/>
	</g>
</g>
<g>
	<g>
		<rect x="256" y="32" width="64" height="16"/>
	</g>
</g>
<g>
	<g>
		<rect x="224" y="64" width="96" height="16"/>
	</g>
</g>
<g>
	<g>
		<rect x="304" y="192" width="16" height="16"/>
	</g>
</g>
<g>
	<g>
		<rect x="328" y="176" width="16" height="32"/>
	</g>
</g>
<g>
	<g>
		<rect x="352" y="160" width="16" height="48"/>
	</g>
</g>
<g>
	<g>
		<rect x="376" y="176" width="16" height="32"/>
	</g>
</g>
<g>
	<g>
		<rect x="400" y="144" width="16" height="64"/>
	</g>
</g>
<g>
</g>
<g>
</g>
<g>
</g>
<g>
</g>
<g>
</g>
<g>
</g>
<g>
</g>
<g>
</g>
<g>
</g>
<g>
</g>
<g>
</g>
<g>
</g>
<g>
</g>
<g>
</g>
<g>
</g>
</svg>
